<svg id="Layer_2" data-name="Layer 2" xmlns="http://www.w3.org/2000/svg" xmlns:xlink="http://www.w3.org/1999/xlink" viewBox="0 0 538.96 167.22">
  <defs>
    <style>
      .cls-199, .cls-299, .cls-399 {
        fill: #0986bf;
      }

      .cls-199, .cls-499, .cls-599 {
        stroke: #fff;
        stroke-miterlimit: 10;
        stroke-width: .98px;
      }

      .cls-699 {
        fill: #fff;
      }

      .cls-799 {
        font-family: Poppins-Regular, Poppins;
        font-size: 18px;
      }

      .cls-499 {
        fill: #296d7f;
      }

      .cls-399 {
        font-family: Poppins-Bold, Poppins;
        font-size: 43.23px;
        font-weight: 700;
      }

      .cls-899 {
        fill: url(#linear-gradient);
      }

      .cls-599 {
        fill: #8cc8dd;
      }
    </style>
    <linearGradient id="linear-gradient" x1="57.94" y1="142.18" x2="120.89" y2="79.23" gradientUnits="userSpaceOnUse">
      <stop offset="0" stop-color="#0986bf"/>
      <stop offset=".12" stop-color="#1a8ec3"/>
      <stop offset=".51" stop-color="#4ea8cf"/>
      <stop offset=".7" stop-color="#63b3d4"/>
      <stop offset=".78" stop-color="#72bad7"/>
      <stop offset=".91" stop-color="#85c4db"/>
      <stop offset="1" stop-color="#8cc8dd"/>
    </linearGradient>
  </defs>
  <g id="Layer_1-2" data-name="Layer 1">
    <g id="artboard2">
      <g>
        <path id="frente" class="cls-599" d="m118.29,148.55c-.36,1.15-1.95,6.25-5.94,9.02-1.37.94-5.05,4.69-17.72,1.15-11.69-3.25-14.67-8.32-24.69-11.9-9.4-3.34-10.22-1.18-21.5-3.87-7.02-1.68-23.85-5.87-36.62-19.5-4.62-4.93-13.44-15.63-10.87-23.88,1.88-6.08,8.18-8.97,9.07-9.35,13.83-6.13,36.26,5.46,45.21,16.09,1.47,1.76,6.54,8.15,15.17,12.38,1.51.75,10.84,3.58,22.24,5.58,22.15,3.9,28.61,14.96,25.66,24.31v-.02Z"/>
        <path id="frente-2" class="cls-499" d="m114.01,153.14c-1.01.94-5.43,5-10.92,5.43-1.88.14-7.6,1.71-17.96-8.94-9.55-9.81-9.59-16.47-17.36-25.66-7.29-8.61-9.31-6.95-18.78-15.99-5.89-5.63-19.93-19.28-24.67-39.82-1.71-7.45-4.23-22.89,2.93-29.48,5.29-4.86,13.08-4.11,14.16-3.99,17,1.85,32.29,25.92,35.01,41.38.46,2.55,1.76,11.69,7.79,20.68,1.06,1.59,8.56,9.64,18.56,18.08,19.4,16.37,19.45,30.85,11.25,38.3h-.02Z"/>
        <path id="frente-3" class="cls-199" d="m107.69,158.6c-1.49.26-8.03,1.42-13.37-1.44-1.83-.99-8.08-2.93-11.37-18.97-3.05-14.79.87-20.99-.91-34.14-1.66-12.31-4.52-12-7.93-26.02-2.14-8.73-7.07-29.74.72-51.65,2.84-7.94,9.64-23.78,20.22-25.66,7.81-1.37,14.6,3.94,15.53,4.69,14.69,11.81,14.62,43.23,7.93,59.22-1.11,2.62-5.31,11.88-5.05,23.83.05,2.12,2.21,14.04,6.49,27.82,8.3,26.74-.24,40.2-12.29,42.25l.02.07Z"/>
      </g>
    </g>
    <g>
      <g>
        <circle class="cls-699" cx="113.1" cy="91.84" r="39.1"/>
        <path class="cls-899" d="m152.76,91.84c-.07,37.7-44.45,58.84-73.48,33.82-20.28-17.41-20.22-50.21.03-67.61,29.01-24.97,73.37-3.89,73.44,33.79h0Zm-1.11,0c-.23-34.03-41.46-51.06-65.5-26.96-14.62,14.23-14.62,39.69,0,53.92,24.04,24.1,65.28,7.07,65.5-26.96h0Z"/>
      </g>
      <g>
        <path class="cls-299" d="m86.99,100.13c3.79-3.13,6.77-5.7,8.96-7.71,2.18-2.01,4.03-4.12,5.54-6.32,1.51-2.2,2.26-4.35,2.26-6.43,0-1.58-.37-2.82-1.1-3.71-.73-.89-1.84-1.33-3.3-1.33s-2.62.55-3.45,1.65c-.83,1.1-1.25,2.66-1.25,4.67h-9.57c.08-3.28.78-6.03,2.12-8.23,1.33-2.2,3.09-3.83,5.28-4.87,2.18-1.04,4.61-1.56,7.28-1.56,4.6,0,8.07,1.18,10.41,3.54,2.34,2.36,3.51,5.43,3.51,9.22,0,4.14-1.41,7.97-4.23,11.51-2.82,3.54-6.42,6.99-10.78,10.35h15.65v8.06h-29.1v-7.36c1.31-1.04,1.91-1.53,1.8-1.45Z"/>
        <path class="cls-299" d="m118.96,73.43c.99-1.57,2.38-2.79,4.17-3.68,1.8-.89,3.85-1.33,6.17-1.33s4.38.44,6.17,1.33c1.8.89,3.19,2.12,4.17,3.68s1.48,3.37,1.48,5.42-.5,3.87-1.51,5.45c-1.01,1.59-2.41,2.83-4.2,3.74-1.8.91-3.85,1.36-6.17,1.36s-4.37-.45-6.15-1.36c-1.78-.91-3.16-2.15-4.14-3.74-.99-1.58-1.48-3.4-1.48-5.45s.49-3.85,1.48-5.42Zm13.3,1.94c-.81-.81-1.82-1.22-3.01-1.22s-2.14.41-2.93,1.22c-.79.81-1.19,1.99-1.19,3.54s.39,2.67,1.16,3.48c.77.81,1.76,1.22,2.96,1.22s2.2-.42,3.01-1.25c.81-.83,1.22-1.98,1.22-3.45,0-1.55-.41-2.72-1.22-3.54Z"/>
      </g>
    </g>
    <text class="cls-799" transform="translate(161.92 42.76)"><tspan x="0" y="0">Encontro anual</tspan></text>
    <text class="cls-399" transform="translate(159.13 89.14)"><tspan x="0" y="0">Palmilhas &amp; </tspan><tspan x="0" y="51.88">Ciência Aplicada</tspan></text>
  </g>
</svg>