<?xml version="1.0" encoding="utf-8"?>
<!-- Generator: Adobe Illustrator 27.2.0, SVG Export Plug-In . SVG Version: 6.00 Build 0)  -->
<svg version="1.1" id="Layer_2_00000132061523092580255610000017439086740141003176_"
	 xmlns="http://www.w3.org/2000/svg" xmlns:xlink="http://www.w3.org/1999/xlink" x="0px" y="0px" viewBox="0 0 2100 900"
	 style="enable-background:new 0 0 2100 900;" xml:space="preserve">
<style type="text/css">
	.st0{fill:#8CC8DD;stroke:#FFFFFF;stroke-width:0.98;stroke-miterlimit:10;}
	.st1{fill:#296D7F;stroke:#FFFFFF;stroke-width:0.98;stroke-miterlimit:10;}
	.st2{fill:#0986BF;stroke:#FFFFFF;stroke-width:0.98;stroke-miterlimit:10;}
	.st3{fill:#FFFFFF;}
	.st4{fill:url(#SVGID_1_);}
	.st5{fill:#0986BF;}
	.st6{enable-background:new    ;}
</style>
<g id="Layer_1-2">
	<g id="artboard2">
		<g>
			<path id="frente" class="st0" d="M486,702.7c-1.5,4.1-7.1,23.2-22.1,33.7c-5.2,3.4-19.1,17.6-66.4,4.1
				c-43.9-12-55.1-31.1-92.6-44.6c-35.2-12.4-38.2-4.5-80.6-14.6c-26.2-6.4-89.6-22.1-137.2-73.1c-17.2-18.4-50.2-58.5-40.9-89.6
				c7.1-22.9,30.7-33.7,34.1-34.9c51.7-22.9,136.1,20.6,169.5,60.4c5.6,6.7,24.4,30.7,57,46.5c5.6,3,40.5,13.5,83.2,21
				C472.8,626.2,496.8,667.4,486,702.7L486,702.7L486,702.7z"/>
			<path id="frente-2" class="st1" d="M469.8,719.6c-3.7,3.4-20.2,18.7-40.9,20.2c-7.1,0.4-28.5,6.4-67.5-33.4
				c-36-36.7-36-61.9-65.2-96.4c-27.4-32.2-34.9-25.9-70.5-60c-22.1-21-74.6-72.4-92.6-149.2c-6.4-28.1-15.7-85.9,10.9-110.6
				c19.9-18.4,49.1-15.4,53.2-15c63.7,6.7,121.1,97.1,131.2,155.2c1.9,9.7,6.7,43.9,29.2,77.6c4.1,6,32.2,36,69.7,67.9
				C500.6,637.4,500.6,691.8,469.8,719.6L469.8,719.6L469.8,719.6z"/>
			<path id="frente-3" class="st2" d="M446.2,740.2c-5.6,1.1-30,5.2-50.2-5.2c-6.7-3.7-30.4-10.9-42.7-71.2
				c-11.6-55.5,3.4-78.7-3.4-127.9c-6.4-46.1-16.9-45-29.6-97.5c-7.9-33-26.6-111.7,2.6-193.9c10.9-30,36.4-89.2,75.7-96.4
				c29.2-5.2,54.7,14.6,58.1,17.6c55.1,44.2,54.7,162,29.6,222c-4.1,9.7-19.9,44.6-19.1,89.2c0.4,7.9,8.2,52.5,24.4,104.2
				C523.1,681.7,491.2,732.3,446.2,740.2L446.2,740.2L446.2,740.2z"/>
		</g>
	</g>
	<g>
		<g>
			<circle class="st3" cx="466.5" cy="489.7" r="146.6"/>
			
				<linearGradient id="SVGID_1_" gradientUnits="userSpaceOnUse" x1="259.5688" y1="1588.5581" x2="495.4917" y2="1352.6353" gradientTransform="matrix(1 0 0 1 0 -910)">
				<stop  offset="0" style="stop-color:#0986BF"/>
				<stop  offset="0.12" style="stop-color:#1A8EC3"/>
				<stop  offset="0.51" style="stop-color:#4EA8CF"/>
				<stop  offset="0.7" style="stop-color:#63B3D4"/>
				<stop  offset="0.78" style="stop-color:#72BAD7"/>
				<stop  offset="0.91" style="stop-color:#85C4DB"/>
				<stop  offset="1" style="stop-color:#8CC8DD"/>
			</linearGradient>
			<path class="st4" d="M615.3,489.7C615,631.1,448.8,710.2,339.7,616.4c-76.1-65.2-75.7-188.2,0-253.5
				C448.5,269.6,615,348.7,615.3,489.7L615.3,489.7L615.3,489.7z M610.8,489.7c-0.8-127.5-155.6-191.6-245.6-101.2
				c-54.7,53.2-54.7,148.9,0,202.1C455.6,681.3,610.1,617.6,610.8,489.7L610.8,489.7z"/>
		</g>
		<g>
			<path class="st5" d="M368.6,520.8c14.2-11.6,25.5-21.4,33.7-28.9c8.2-7.5,15-15.4,20.6-23.6s8.6-16.1,8.6-24
				c0-6-1.5-10.5-4.1-13.9c-2.6-3.4-6.7-4.9-12.4-4.9s-9.7,2.2-12.7,6.4c-3,4.1-4.5,10.1-4.5,17.6h-36c0.4-12.4,3-22.5,7.9-30.7
				c4.9-8.2,11.6-14.2,19.9-18.4c8.2-3.7,17.2-6,27.4-6c17.2,0,30.4,4.5,39,13.1c8.6,8.6,13.1,20.2,13.1,34.5
				c0,15.4-5.2,30-15.7,43.1c-10.5,13.1-24,26.2-40.5,38.6h58.9v30.4H361.8v-27.7C366.7,522.7,369,520.8,368.6,520.8L368.6,520.8z"
				/>
			<path class="st5" d="M488.6,420.7c3.7-6,9-10.5,15.7-13.9c6.7-3.4,14.2-4.9,23.2-4.9s16.5,1.5,23.2,4.9s12,7.9,15.7,13.9
				s5.6,12.7,5.6,20.2s-1.9,14.6-5.6,20.2c-3.7,6-9,10.5-15.7,13.9s-14.6,5.2-23.2,5.2s-16.5-1.5-23.2-5.2
				c-6.7-3.7-12-8.2-15.4-13.9c-3.7-6-5.6-12.7-5.6-20.2S484.8,426.7,488.6,420.7L488.6,420.7z M538.5,428.2c-3-3-6.7-4.5-11.2-4.5
				s-7.9,1.5-10.9,4.5c-3,3-4.5,7.5-4.5,13.1s1.5,10.1,4.5,13.1c3,3,6.7,4.5,11.2,4.5s8.2-1.5,11.2-4.5c3-3,4.5-7.5,4.5-12.7
				C543,435.7,541.5,431.2,538.5,428.2z"/>
		</g>
	</g>
	<g class="st6">
		<path d="M660.7,263.6v15.7H678v4.9h-17.2v16.1h19.1v4.9h-25.5v-46.5h25.5v5.2h-19.1V263.6z"/>
		<path d="M718.5,272.2c2.6,2.6,4.1,6.7,4.1,11.6v21.7h-6v-21c0-3.7-0.7-6.4-2.6-8.6c-1.9-1.9-4.5-3-7.5-3c-3.4,0-6,1.1-7.9,3
			c-1.9,1.9-3,4.9-3,9v20.6h-6v-37.1h6v5.2c1.1-1.9,3-3.4,4.9-4.5c2.2-1.1,4.5-1.5,6.7-1.5C711.7,268.1,715.5,269.6,718.5,272.2z"/>
		<path d="M732.7,277.1c1.5-3,3.7-5.2,6.4-6.7c2.6-1.5,6-2.2,9.4-2.2c4.5,0,8.2,1.1,11.2,3.4c3,2.2,4.9,5.2,6,9h-7.1
			c-0.7-2.2-1.9-4.1-3.7-5.2c-1.9-1.1-4.1-1.9-6.7-1.9c-3.4,0-6.4,1.1-8.6,3.7c-2.2,2.6-3.4,6-3.4,10.1c0,4.5,1.1,7.9,3.4,10.5
			c2.2,2.2,4.9,3.7,8.6,3.7c2.6,0,4.9-0.7,6.7-1.9c1.9-1.1,3-3,3.7-5.2h6.7c-1.1,3.7-3,6.7-6,9c-3,2.2-6.7,3.4-11.2,3.4
			c-3.4,0-6.7-0.7-9.4-2.2s-4.9-3.7-6.4-6.7c-1.5-3-2.2-6.4-2.2-10.1C730.1,283.5,731.2,280.1,732.7,277.1z"/>
		<path d="M780.3,304.1c-3-1.5-4.9-3.7-6.7-6.7c-1.5-3-2.2-6.4-2.2-10.1s0.8-7.1,2.6-10.1c1.5-3,3.7-5.2,6.7-6.7
			c3-1.5,6-2.2,9.4-2.2s6.7,0.7,9.4,2.2c3,1.5,5.2,3.7,6.7,6.7c1.5,3,2.6,6.4,2.6,10.1s-0.7,7.1-2.6,10.1c-1.5,3-4.1,5.2-6.7,6.7
			c-3,1.5-6,2.2-9.7,2.2C786.3,306.3,783,305.6,780.3,304.1z M795.7,299.6c1.9-1.1,3.4-2.6,4.9-4.5c1.1-2.2,1.9-4.5,1.9-7.5
			c0-3-0.8-5.6-1.9-7.5s-2.6-3.7-4.5-4.5c-1.9-1.1-4.1-1.5-6-1.5c-2.2,0-4.1,0.4-6,1.5c-1.9,1.1-3.4,2.6-4.5,4.5
			c-1.1,1.9-1.5,4.5-1.5,7.5c0,3,0.4,5.6,1.5,7.5c1.1,2.2,2.6,3.7,4.5,4.5c1.9,1.1,3.7,1.5,6,1.5
			C792.3,301.1,793.8,300.3,795.7,299.6z"/>
		<path d="M845.6,272.2c2.6,2.6,4.1,6.7,4.1,11.6v21.7h-6v-21c0-3.7-0.7-6.4-2.6-8.6c-1.9-1.9-4.5-3-7.5-3c-3.4,0-6,1.1-7.9,3
			c-1.9,1.9-3,4.9-3,9v20.6h-6v-37.1h6v5.2c1.1-1.9,3-3.4,4.9-4.5c2.2-1.1,4.5-1.5,6.7-1.5C839.2,268.1,843,269.6,845.6,272.2z"/>
		<path d="M867.3,273.7v21.7c0,1.9,0.4,3,1.1,3.7s2.2,1.1,4.1,1.1h4.5v5.2h-5.6c-3.4,0-6-0.7-7.9-2.2c-1.9-1.5-2.6-4.1-2.6-7.9
			v-21.7h-4.9v-5.2h4.9v-9.4h6v9.4h9.7v5.2C876.7,273.7,867.3,273.7,867.3,273.7z"/>
		<path d="M895.1,270c1.9-1.1,4.5-1.9,7.5-1.9v6.4h-1.5c-6.7,0-10.5,3.7-10.5,11.2V306h-6v-37.1h6v6
			C891.7,272.6,893.2,271.1,895.1,270z"/>
		<path d="M916.4,304.1c-3-1.5-4.9-3.7-6.7-6.7c-1.5-3-2.2-6.4-2.2-10.1s0.7-7.1,2.6-10.1c1.5-3,3.7-5.2,6.7-6.7
			c3-1.5,6-2.2,9.4-2.2s6.7,0.7,9.4,2.2c3,1.5,5.2,3.7,6.7,6.7c1.5,3,2.6,6.4,2.6,10.1s-0.8,7.1-2.6,10.1c-1.5,3-4.1,5.2-6.7,6.7
			c-3,1.5-6,2.2-9.7,2.2C922.4,306.3,919.1,305.6,916.4,304.1z M931.8,299.6c1.9-1.1,3.4-2.6,4.9-4.5c1.1-2.2,1.9-4.5,1.9-7.5
			c0-3-0.7-5.6-1.9-7.5c-1.1-1.9-2.6-3.7-4.5-4.5c-1.9-1.1-4.1-1.5-6-1.5c-2.2,0-4.1,0.4-6,1.5c-1.9,1.1-3.4,2.6-4.5,4.5
			s-1.5,4.5-1.5,7.5c0,3,0.4,5.6,1.5,7.5c1.1,2.2,2.6,3.7,4.5,4.5c1.9,1.1,3.7,1.5,6,1.5C928.4,301.1,929.9,300.3,931.8,299.6z"/>
		<path d="M970.8,277.1c1.5-3,3.7-5.2,6.4-6.7c2.6-1.5,5.6-2.2,9-2.2s6,0.7,8.2,2.2c2.2,1.5,4.1,3,5.2,5.2v-6.7h6.4V306h-6.4v-6.7
			c-1.1,2.2-3,4.1-5.2,5.2c-2.2,1.1-5.2,2.2-8.2,2.2c-3.4,0-6.4-0.7-9-2.2c-2.6-1.5-4.9-3.7-6.4-6.7c-1.5-3-2.2-6.4-2.2-10.1
			C968.6,283.5,969.3,280.1,970.8,277.1z M998.2,280.1c-1.1-2.2-2.6-3.7-4.5-4.9c-1.9-1.1-4.1-1.5-6.4-1.5c-2.2,0-4.5,0.4-6.4,1.5
			s-3.4,2.6-4.5,4.9s-1.5,4.5-1.5,7.1c0,3,0.4,5.2,1.5,7.5c1.1,2.2,2.6,3.7,4.5,4.9s4.1,1.5,6.4,1.5s4.5-0.4,6.4-1.5
			c1.9-1.1,3.4-2.6,4.5-4.9c1.1-2.2,1.9-4.5,1.9-7.5S999.3,282,998.2,280.1z"/>
		<path d="M1045.4,272.2c2.6,2.6,4.1,6.7,4.1,11.6v21.7h-6v-21c0-3.7-0.8-6.4-2.6-8.6c-1.9-1.9-4.5-3-7.5-3c-3.4,0-6,1.1-7.9,3
			c-1.9,1.9-3,4.9-3,9v20.6h-6v-37.1h6v5.2c1.1-1.9,3-3.4,4.9-4.5c2.2-1.1,4.5-1.5,6.7-1.5C1039.1,268.1,1042.8,269.6,1045.4,272.2z
			"/>
		<path d="M1092.7,268.8V306h-6v-5.6c-1.1,1.9-2.6,3.4-4.9,4.5c-2.2,1.1-4.5,1.5-6.7,1.5c-3,0-5.6-0.7-7.9-1.9s-4.1-3-5.2-5.2
			c-1.5-2.2-1.9-5.2-1.9-8.6v-21.7h6v21c0,3.7,0.8,6.4,2.6,8.2c1.9,1.9,4.5,3,7.5,3c3.4,0,6-1.1,7.9-3c1.9-1.9,3-4.9,3-9v-20.2
			H1092.7z"/>
		<path d="M1102.8,277.1c1.5-3,3.7-5.2,6.4-6.7c2.6-1.5,5.6-2.2,9-2.2c3.4,0,6,0.7,8.2,2.2c2.2,1.5,4.1,3,5.2,5.2v-6.7h6.4V306h-6.4
			v-6.7c-1.1,2.2-3,4.1-5.2,5.2c-2.2,1.5-5.2,2.2-8.2,2.2c-3.4,0-6.4-0.7-9-2.2c-2.6-1.5-4.9-3.7-6.4-6.7s-2.2-6.4-2.2-10.1
			C1100.6,283.5,1101.3,280.1,1102.8,277.1z M1130.2,280.1c-1.1-2.2-2.6-3.7-4.5-4.9s-4.1-1.5-6.4-1.5s-4.5,0.4-6.4,1.5
			c-1.9,1.1-3.4,2.6-4.5,4.9s-1.5,4.5-1.5,7.1c0,3,0.4,5.2,1.5,7.5c1.1,2.2,2.6,3.7,4.5,4.9c1.9,1.1,4.1,1.5,6.4,1.5
			s4.5-0.4,6.4-1.5s3.4-2.6,4.5-4.9c1.1-2.2,1.9-4.5,1.9-7.5S1131.3,282,1130.2,280.1z"/>
		<path d="M1154.6,255.7v49.9h-6v-49.9H1154.6z"/>
	</g>
	<g class="st6">
		<path class="st5" d="M731.2,420.7c-3,5.6-7.5,9.7-13.9,13.1c-6.4,3.4-13.9,4.9-23.2,4.9h-17.2v40.9h-27.7V366h45
			c9,0,16.9,1.5,22.9,4.9c6,3.4,10.9,7.5,14.2,13.1c3,5.6,4.9,12,4.9,19.1C735.7,409.1,734.2,415.1,731.2,420.7z M703.8,413.2
			c2.6-2.6,3.7-6,3.7-10.5c0-4.5-1.1-7.9-3.7-10.5c-2.6-2.6-6.4-3.7-12-3.7h-15V417h15C697.1,417,701.2,415.5,703.8,413.2z"/>
		<path class="st5" d="M750,409.8c3.4-7.1,8.2-12.4,14.2-16.1c6-3.7,12.7-5.6,20.2-5.6c6.4,0,12,1.1,16.9,3.7
			c4.9,2.6,8.6,6,11.2,10.1v-12.7h27.7v90.4h-27.7v-12.7c-2.6,4.1-6.4,7.5-11.2,10.1c-4.9,2.6-10.5,3.7-16.9,3.7
			c-7.5,0-13.9-1.9-20.2-5.6c-6-3.7-10.9-9.4-14.2-16.5c-3.4-7.1-5.2-15.4-5.2-24.4C744.7,425.2,746.6,417,750,409.8z M807,418.1
			c-3.7-4.1-8.6-6-13.9-6c-5.6,0-10.1,1.9-13.9,6c-3.7,4.1-5.6,9.4-5.6,16.1c0,6.7,1.9,12.4,5.6,16.5c3.7,4.1,8.6,6,13.9,6
			c5.6,0,10.1-1.9,13.9-6s5.6-9.4,5.6-16.5C812.6,427.5,810.7,422.2,807,418.1z"/>
		<path class="st5" d="M887.9,359.6v120h-27.7v-120H887.9z"/>
		<path class="st5" d="M1050.3,398.6c6.7,6.7,10.1,16.1,10.1,28.5V480h-27.4v-49.5c0-6-1.5-10.5-4.5-13.5c-3-3.4-7.5-4.9-12.7-4.9
			s-9.7,1.5-12.7,4.9c-3,3-4.5,7.9-4.5,13.5v49.1h-27.4v-49.1c0-6-1.5-10.5-4.5-13.5c-3-3.4-7.5-4.9-12.7-4.9s-9.7,1.5-12.7,4.9
			c-3,3-4.5,7.9-4.5,13.5v49.1h-27.7v-90.4h27.7v11.2c2.6-3.7,6.4-6.7,10.9-9s9.7-3.4,15.4-3.4c6.7,0,12.7,1.5,18.4,4.5
			c5.2,3,9.4,7.1,12.7,12.4c3-4.9,7.5-9,12.7-12c5.2-3,11.2-4.9,17.6-4.9C1034.9,388.5,1043.9,391.8,1050.3,398.6z"/>
		<path class="st5" d="M1081.8,375.7c-3-3-4.5-6.4-4.5-10.5c0-4.5,1.5-7.9,4.5-10.9c3-3,7.1-4.1,12-4.1c4.9,0,8.6,1.5,11.6,4.1
			c3,2.6,4.5,6.4,4.5,10.9c0,4.1-1.5,7.9-4.5,10.5c-3,3-7.1,4.1-11.6,4.1C1088.9,379.8,1084.8,378.3,1081.8,375.7z M1107.7,389.2
			v90.4h-27.7v-90.4H1107.7z"/>
		<path class="st5" d="M1155.3,359.6v120h-27.7v-120H1155.3z"/>
		<path class="st5" d="M1256.2,398.6c6.4,6.7,9.4,16.1,9.4,28.1v52.9h-27.4v-49.1c0-6-1.5-10.9-4.9-14.2c-3.4-3.4-7.5-4.9-12.7-4.9
			s-9.4,1.5-12.7,4.9c-3.4,3.4-4.9,7.9-4.9,14.2v49.1h-27.7v-120h27.7v41.6c2.6-4.1,6.7-7.1,11.6-9.7c4.9-2.6,10.5-3.7,16.5-3.7
			C1241.6,388.5,1249.8,391.8,1256.2,398.6z"/>
		<path class="st5" d="M1284.3,409.8c3.4-7.1,8.2-12.4,14.2-16.1c6-3.7,12.7-5.6,20.2-5.6c6.4,0,12,1.1,16.9,3.7
			c4.9,2.6,8.6,6,11.2,10.1v-12.7h27.7v90.4h-27.7v-12.7c-2.6,4.1-6.4,7.5-11.2,10.1c-4.9,2.6-10.5,3.7-16.9,3.7
			c-7.5,0-13.9-1.9-20.2-5.6c-6.4-3.7-10.9-9.4-14.2-16.5c-3.4-7.1-5.2-15.4-5.2-24.4C1279.1,425.2,1280.9,417,1284.3,409.8z
			 M1341.3,418.1c-3.7-4.1-8.6-6-13.9-6c-5.2,0-10.1,1.9-13.9,6c-3.7,4.1-5.6,9.4-5.6,16.1c0,6.7,1.9,12.4,5.6,16.5
			c3.7,4.1,8.6,6,13.9,6c5.2,0,10.1-1.9,13.9-6c3.7-4.1,5.6-9.4,5.6-16.5C1346.9,427.5,1345.1,422.2,1341.3,418.1z"/>
		<path class="st5" d="M1410.7,477c-6-2.6-10.9-6.4-14.6-11.2c-3.7-4.9-5.6-10.1-6-15.7h27.4c0.4,3,1.9,5.6,4.5,7.5
			c2.6,1.9,5.6,3,9.7,3c3.4,0,6-0.7,7.9-1.9c1.9-1.1,3-3,3-5.2c0-2.6-1.5-4.5-4.1-5.6c-2.6-1.1-7.1-2.6-13.1-4.1
			c-6.4-1.5-12-3-16.1-4.9c-4.5-1.5-7.9-4.5-11.2-7.9c-3-3.7-4.9-8.6-4.9-14.6c0-5.2,1.5-9.7,4.1-14.2c3-4.1,7.1-7.5,12.7-10.1
			c5.6-2.6,12-3.7,19.9-3.7c11.2,0,20.2,2.6,27,8.2c6.4,5.6,10.1,13.1,11.2,22.5h-25.5c-0.4-3-1.9-5.6-4.1-7.5
			c-2.2-1.9-5.2-2.6-9-2.6c-3.4,0-5.6,0.7-7.5,1.9c-1.9,1.1-2.6,3-2.6,5.2c0,2.6,1.5,4.5,4.1,6c2.6,1.1,7.1,2.6,12.7,3.7
			c6.7,1.9,12,3.4,16.5,5.2c4.1,1.5,7.9,4.5,11.2,8.2c3,3.7,4.9,8.6,4.9,15c0,5.2-1.5,10.1-4.5,14.2c-3,4.1-7.1,7.5-12.7,9.7
			c-5.6,2.2-12,3.7-19.5,3.7C1423.8,481.1,1416.7,479.6,1410.7,477z"/>
		<path class="st5" d="M1606.8,479.6l-10.5-10.1c-10.5,7.9-22.9,12-37.5,12c-8.6,0-16.5-1.5-22.9-4.1c-6.4-3-11.6-6.7-15-12
			c-3.4-5.2-5.2-11.2-5.2-18.4s1.9-13.5,5.6-19.5c3.7-5.6,9.7-10.5,17.2-14.2c-2.6-3.4-4.9-6.7-6-10.1c-1.1-3.4-1.9-6.7-1.9-10.5
			c0-5.2,1.5-10.5,4.1-14.6c3-4.5,6.7-7.9,12.4-10.5c5.6-2.6,11.6-3.7,19.1-3.7s13.9,1.5,19.1,4.1c5.2,2.6,9,6.4,11.6,10.9
			s3.7,9.4,3.7,15h-26.2c0-3-0.8-5.2-2.2-6.7s-3.7-2.2-6.4-2.2s-4.9,0.7-6.4,2.2c-1.9,1.5-2.6,3.4-2.6,6c0,2.2,0.8,4.5,2.2,7.1
			c1.5,2.6,3.7,5.2,6.7,8.6l27.7,27c0.4-0.4,0.4-1.1,0.8-1.9c0.4-0.7,0.8-1.5,1.1-2.6l6-10.1h27.7l-7.9,14.2
			c-3,6.4-6.4,12.4-10.1,18l27.4,27h-31.9V479.6z M1579,453l-25.1-24.4c-7.9,4.1-11.6,9.4-11.6,16.1c0,4.1,1.5,7.5,4.9,10.1
			c3.4,2.6,7.5,4.1,12.7,4.1C1567,459,1573.4,457.1,1579,453z"/>
	</g>
	<g class="st6">
		<path class="st5" d="M651.7,587.2c4.9-8.6,11.6-15.7,20.2-20.6c8.6-4.9,18.4-7.5,29.6-7.5c13.5,0,25.1,3.7,34.9,10.9
			c9.7,7.1,16.1,16.9,19.1,29.2h-30.4c-2.2-4.9-5.6-8.2-9.7-10.9c-4.1-2.6-9-3.7-14.2-3.7c-8.6,0-15.4,3-20.6,9
			c-5.2,6-7.9,13.9-7.9,24s2.6,18,7.9,24c5.2,6,12.4,9,20.6,9c5.2,0,10.1-1.1,14.2-3.7c4.1-2.6,7.5-6,9.7-10.9h30.4
			c-3.4,12.4-9.7,22.1-19.1,29.2c-9.7,7.1-21,10.5-34.9,10.5c-10.9,0-21-2.6-29.6-7.5c-8.6-4.9-15.4-11.6-20.2-20.6
			c-4.9-9-7.1-18.7-7.1-30C644.6,605.9,646.8,595.8,651.7,587.2z"/>
		<path class="st5" d="M774.7,569.9c-3-3-4.5-6.4-4.5-10.5c0-4.5,1.5-7.9,4.5-10.9c3-3,7.1-4.1,12-4.1c4.9,0,8.6,1.5,11.6,4.1
			c3,2.6,4.5,6.4,4.5,10.9c0,4.1-1.5,7.9-4.5,10.5c-3,3-7.1,4.1-11.6,4.1C781.8,574.4,777.7,572.9,774.7,569.9z M800.2,583.8v90.4
			h-27.7v-90.4H800.2z"/>
		<path class="st5" d="M905.2,635.6h-62.6c0.4,5.6,2.2,9.7,5.2,12.7c3,3,7.1,4.5,11.6,4.5c6.7,0,11.6-3,14.2-8.6h29.6
			c-1.5,6-4.1,11.2-8.2,16.1c-4.1,4.9-9,8.6-15,11.2c-6,2.6-12.7,4.1-19.9,4.1c-9,0-16.9-1.9-23.6-5.6c-6.7-3.7-12.4-9-16.1-16.1
			c-3.7-7.1-6-15.4-6-24.7s1.9-17.6,5.6-24.7s9.4-12.4,16.1-16.1c6.7-3.7,15-5.6,24-5.6c8.6,0,16.5,1.9,23.2,5.6
			c6.7,3.7,12,9,16.1,15.7c3.7,6.7,5.6,14.6,5.6,24C905.6,630.3,905.6,632.9,905.2,635.6z M860.2,563.6l-25.1,13.1v-18.7l25.1-12.7
			l25.1,12.7v19.1L860.2,563.6z M877.4,620.2c0-4.9-1.5-8.6-4.9-11.2c-3.4-2.6-7.1-4.1-12-4.1c-4.5,0-8.6,1.5-11.6,4.1
			c-3.4,2.6-5.2,6.4-6,11.6h34.5V620.2z"/>
		<path class="st5" d="M1000.8,593.2c6.4,6.7,9.4,16.1,9.4,28.1v52.9h-27.4v-49.1c0-6-1.5-10.9-4.9-14.2c-3-3.4-7.5-4.9-12.7-4.9
			s-9.4,1.5-12.7,4.9c-3,3.4-4.9,7.9-4.9,14.2v49.1h-27.7v-90.4h27.7v12c2.6-4.1,6.7-7.1,11.2-9.4c4.9-2.2,10.1-3.4,16.1-3.4
			C986.2,582.7,994.4,586.4,1000.8,593.2z"/>
		<path class="st5" d="M1029.7,604.4c3.7-7.1,9-12.4,16.1-16.1c6.7-3.7,14.6-5.6,23.6-5.6c11.2,0,21,3,28.5,9s12.7,14.2,15,25.1
			h-29.6c-2.6-6.7-7.1-10.5-14.2-10.5c-5.2,0-9,1.9-12,6c-3,4.1-4.5,9.7-4.5,16.9c0,7.5,1.5,13.1,4.5,16.9c3,4.1,7.1,6,12,6
			c7.1,0,12-3.4,14.2-10.5h29.6c-2.2,10.5-7.5,18.7-15,25.1c-7.5,6-17.2,9-28.5,9c-9,0-16.9-1.9-23.6-5.6c-6.7-3.7-12.4-9-16.1-16.1
			c-3.7-7.1-5.6-15.4-5.6-24.7S1025.9,611.6,1029.7,604.4z"/>
		<path class="st5" d="M1129.8,569.9c-3-3-4.5-6.4-4.5-10.5c0-4.5,1.5-7.9,4.5-10.9c3-3,7.1-4.1,12-4.1c4.9,0,8.6,1.5,11.6,4.1
			c3,2.6,4.5,6.4,4.5,10.9c0,4.1-1.5,7.9-4.5,10.5c-3,3-7.1,4.1-11.6,4.1C1136.6,574.4,1132.8,572.9,1129.8,569.9z M1155.3,583.8
			v90.4h-27.7v-90.4H1155.3z"/>
		<path class="st5" d="M1175.2,604.4c3.4-7.1,8.2-12.4,14.2-16.1c6-3.7,12.7-5.6,20.2-5.6c6.4,0,12,1.1,16.9,3.7
			c4.9,2.6,8.6,6,11.2,10.1v-12.7h27.7v90.4h-27.7v-12.7c-2.6,4.1-6.4,7.5-11.2,10.1s-10.5,3.7-16.9,3.7c-7.5,0-13.9-1.9-20.2-5.6
			c-6-3.7-10.9-9.4-14.2-16.5c-3.4-7.1-5.2-15.4-5.2-24.4C1169.9,619.8,1171.8,611.6,1175.2,604.4z M1231.8,612.7
			c-3.7-4.1-8.6-6-13.9-6c-5.6,0-10.1,1.9-13.9,6c-3.7,4.1-5.6,9.4-5.6,16.1s1.9,12.4,5.6,16.5c3.7,4.1,8.6,6,13.9,6
			c5.6,0,10.1-1.9,13.9-6c3.7-4.1,5.6-9.4,5.6-16.5S1235.9,616.8,1231.8,612.7z"/>
		<path class="st5" d="M1390.8,654.3h-42.4l-6.7,20.2h-28.9l41.2-113.6h32.2l41.2,113.6h-29.2L1390.8,654.3z M1383.7,632.9
			l-14.2-41.6l-13.9,41.6H1383.7z"/>
		<path class="st5" d="M1478.2,586.4c4.9-2.6,10.5-3.7,16.9-3.7c7.5,0,14.2,1.9,20.2,5.6c6,3.7,10.9,9.4,14.2,16.1
			c3.4,7.1,5.2,15,5.2,24.4s-1.9,17.6-5.2,24.4c-3.4,7.1-8.2,12.4-14.2,16.5c-6,3.7-12.7,5.6-20.2,5.6c-6.4,0-11.6-1.1-16.5-3.7
			c-4.9-2.6-8.6-6-11.2-10.1v55.9h-27.7V583.8h27.7v12.7C1469.9,592.4,1473.7,589.1,1478.2,586.4z M1501,612.7
			c-3.7-4.1-8.6-6-14.2-6s-10.1,1.9-13.9,6c-3.7,4.1-5.6,9.4-5.6,16.5s1.9,12.4,5.6,16.5c3.7,4.1,8.6,6,13.9,6
			c5.2,0,10.1-1.9,14.2-6c3.7-4.1,6-9.4,6-16.5S1504.8,616.4,1501,612.7z"/>
		<path class="st5" d="M1577.2,554.2v120h-27.7v-120H1577.2z"/>
		<path class="st5" d="M1599.3,569.9c-3-3-4.5-6.4-4.5-10.5c0-4.5,1.5-7.9,4.5-10.9c3-3,7.1-4.1,12-4.1c4.9,0,8.6,1.5,11.6,4.1
			c3,2.6,4.5,6.4,4.5,10.9c0,4.1-1.5,7.9-4.5,10.5c-3,3-7.1,4.1-11.6,4.1C1606.4,574.4,1602.3,572.9,1599.3,569.9z M1625.2,583.8
			v90.4h-27.7v-90.4H1625.2z"/>
		<path class="st5" d="M1645.4,604.4c3.7-7.1,9-12.4,16.1-16.1c6.7-3.7,14.6-5.6,23.6-5.6c11.2,0,21,3,28.5,9s12.7,14.2,15,25.1
			H1699c-2.6-6.7-7.1-10.5-14.2-10.5c-5.2,0-9,1.9-12,6s-4.5,9.7-4.5,16.9c0,7.5,1.5,13.1,4.5,16.9s7.1,6,12,6
			c7.1,0,12-3.4,14.2-10.5h29.6c-2.2,10.5-7.5,18.7-15,25.1c-7.5,6-17.2,9-28.5,9c-9,0-16.9-1.9-23.6-5.6s-12.4-9-16.1-16.1
			c-3.7-7.1-5.6-15.4-5.6-24.7S1641.7,611.6,1645.4,604.4z"/>
		<path class="st5" d="M1742.9,604.4c3.4-7.1,8.2-12.4,14.2-16.1c6-3.7,12.7-5.6,20.2-5.6c6.4,0,12,1.1,16.9,3.7
			c4.9,2.6,8.6,6,11.2,10.1v-12.7h27.7v90.4h-27.7v-12.7c-2.6,4.1-6.4,7.5-11.2,10.1s-10.5,3.7-16.9,3.7c-7.5,0-13.9-1.9-20.2-5.6
			c-6-3.7-10.9-9.4-14.2-16.5c-3.4-7.1-5.2-15.4-5.2-24.4C1737.7,619.8,1739.5,611.6,1742.9,604.4z M1799.5,612.7
			c-3.7-4.1-8.6-6-13.9-6c-5.6,0-10.1,1.9-13.9,6c-3.7,4.1-5.6,9.4-5.6,16.1s1.9,12.4,5.6,16.5c3.7,4.1,8.6,6,13.9,6
			c5.6,0,10.1-1.9,13.9-6c3.7-4.1,5.6-9.4,5.6-16.5S1803.7,616.8,1799.5,612.7z"/>
		<path class="st5" d="M1853.2,604.4c3.4-7.1,8.2-12.4,14.2-16.1c6-3.7,12.7-5.6,20.2-5.6c6,0,11.2,1.1,16.1,3.7
			c4.9,2.6,8.6,6,11.6,10.1v-42.4h27.7v120h-27.7v-13.1c-2.6,4.5-6.4,7.9-11.2,10.5c-4.9,2.6-10.5,3.7-16.9,3.7
			c-7.5,0-14.2-1.9-20.2-5.6c-6-3.7-10.9-9.4-14.2-16.5c-3.4-7.1-5.2-15.4-5.2-24.4C1847.5,619.8,1849.4,611.6,1853.2,604.4z
			 M1909.8,612.7c-3.7-4.1-8.6-6-13.9-6c-5.6,0-10.1,1.9-13.9,6c-3.7,4.1-5.6,9.4-5.6,16.1s1.9,12.4,5.6,16.5c3.7,4.1,8.6,6,13.9,6
			c5.6,0,10.1-1.9,13.9-6c3.7-4.1,5.6-9.4,5.6-16.5S1913.5,616.8,1909.8,612.7z"/>
		<path class="st5" d="M1963,604.4c3.4-7.1,8.2-12.4,14.2-16.1s12.7-5.6,20.2-5.6c6.4,0,12,1.1,16.9,3.7c4.9,2.6,8.6,6,11.2,10.1
			v-12.7h27.7v90.4h-27.7v-12.7c-2.6,4.1-6.4,7.5-11.2,10.1c-4.9,2.6-10.5,3.7-16.9,3.7c-7.5,0-13.9-1.9-20.2-5.6
			c-6-3.7-10.9-9.4-14.2-16.5c-3.4-7.1-5.2-15.4-5.2-24.4C1957.8,619.8,1959.6,611.6,1963,604.4z M2019.6,612.7
			c-3.7-4.1-8.6-6-13.9-6c-5.6,0-10.1,1.9-13.9,6c-3.7,4.1-5.6,9.4-5.6,16.1s1.9,12.4,5.6,16.5c3.7,4.1,8.6,6,13.9,6
			c5.6,0,10.1-1.9,13.9-6c3.7-4.1,5.6-9.4,5.6-16.5S2023.8,616.8,2019.6,612.7z"/>
	</g>
</g>
</svg>
