<?xml version="1.0" encoding="UTF-8"?>
<svg id="Layer_2" data-name="Layer 2" xmlns="http://www.w3.org/2000/svg" viewBox="0 0 485.79 130.23">
  <defs>
    <style>
      .cls-1 {
        fill: #296d7f;
      }

      .cls-1, .cls-2, .cls-3, .cls-4 {
        stroke-miterlimit: 10;
      }

      .cls-1, .cls-2, .cls-4 {
        stroke: #fff;
        stroke-width: 1.62px;
      }

      .cls-5 {
        letter-spacing: -.06em;
      }

      .cls-5, .cls-6, .cls-7, .cls-4 {
        fill: #0986bf;
      }

      .cls-5, .cls-7 {
        font-size: 67.21px;
      }

      .cls-5, .cls-7, .cls-8 {
        font-family: Poppins-Regular, Poppins;
      }

      .cls-2 {
        fill: #8cc8dd;
      }

      .cls-9 {
        fill: #abccd3;
      }

      .cls-7 {
        letter-spacing: -.06em;
      }

      .cls-3 {
        fill: #fff;
        stroke: #0986bf;
        stroke-linecap: round;
        stroke-width: 1.07px;
      }

      .cls-8 {
        font-size: 19.42px;
        letter-spacing: .1em;
      }
    </style>
  </defs>
  <g id="artboard2">
    <g>
      <g>
        <path id="frente" class="cls-2" d="m82.27,111.78c-.25.81-1.34,4.32-4.11,6.23-.95.65-3.49,3.24-12.25.8-8.07-2.25-10.15-5.76-17.08-8.23-6.5-2.31-7.07-.82-14.86-2.68-4.85-1.16-16.49-4.06-25.32-13.48-3.2-3.41-9.29-10.81-7.52-16.5,1.3-4.2,5.66-6.2,6.26-6.47,9.56-4.25,25.06,3.77,31.27,11.13,1.02,1.21,4.52,5.64,10.48,8.55,1.05.51,7.5,2.47,15.38,3.86,15.31,2.69,19.79,10.34,17.74,16.8Z"/>
        <path id="frente-2" data-name="frente" class="cls-1" d="m79.3,114.97c-.71.64-3.76,3.46-7.55,3.75-1.3.1-5.25,1.18-12.42-6.18-6.6-6.78-6.64-11.39-12.01-17.73-5.04-5.95-6.44-4.81-12.98-11.06-4.07-3.89-13.79-13.33-17.06-27.54-1.19-5.15-2.93-15.83,2.03-20.38,3.66-3.36,9.05-2.85,9.79-2.76,11.75,1.28,22.33,17.92,24.21,28.62.31,1.76,1.21,8.07,5.38,14.31.74,1.1,5.92,6.67,12.83,12.5,13.42,11.32,13.45,21.33,7.78,26.48Z"/>
        <path id="frente-3" data-name="frente" class="cls-4" d="m74.94,118.73c-1.04.18-5.55.98-9.24-1-1.26-.68-5.58-2.02-7.87-13.11-2.11-10.22.6-14.52-.62-23.6-1.14-8.52-3.13-8.29-5.49-17.98-1.47-6.03-4.89-20.57.5-35.71,1.95-5.49,6.67-16.44,13.99-17.73,5.4-.95,10.09,2.73,10.74,3.25,10.15,8.17,10.11,29.9,5.49,40.96-.76,1.82-3.67,8.22-3.5,16.48.03,1.46,1.54,9.71,4.5,19.23,5.74,18.48-.17,27.8-8.49,29.22Z"/>
      </g>
      <g>
        <text class="cls-8" transform="translate(132.12 108.16)"><tspan x="0" y="0">www.</tspan><tspan class="cls-6" x="59.63" y="0">palmilhando</tspan><tspan x="205.14" y="0">.com.br</tspan></text>
        <g>
          <path class="cls-9" d="m421.68,113.74l4.54,12.47c.25.67,1.13.83,1.59.28l1.04-1.24c.33-.39.92-.45,1.31-.11l5.81,4.88c.39.33.98.28,1.31-.11l4.05-4.83c.33-.39.28-.98-.11-1.31l-5.81-4.88c-.39-.33-.45-.92-.11-1.31l1.04-1.24c.46-.55.15-1.39-.55-1.52l-13.07-2.3c-.71-.12-1.28.56-1.04,1.24Z"/>
          <path class="cls-3" d="m422.08,110.42l5.6,15.38s.05.03.07.01l2.64-3.14,7.21,6.05s.04.01.06,0l5.2-6.2s.01-.04,0-.06l-7.21-6.05,2.64-3.14s0-.06-.02-.06l-16.12-2.84s-.05.02-.04.05Z"/>
        </g>
      </g>
      <g>
        <text class="cls-5" transform="translate(89.18 79.44)"><tspan x="0" y="0">Palmilhando</tspan></text>
        <text class="cls-7" transform="translate(467.89 57.06) scale(.58)"><tspan x="0" y="0">®</tspan></text>
      </g>
    </g>
  </g>
</svg>